<?xml version="1.0" encoding="utf-8"?>
<!-- Generator: Adobe Illustrator 23.1.1, SVG Export Plug-In . SVG Version: 6.00 Build 0)  -->
<svg version="1.1" id="Слой_1" xmlns="http://www.w3.org/2000/svg" xmlns:xlink="http://www.w3.org/1999/xlink" x="0px" y="0px"
	 viewBox="0 0 81 44" style="enable-background:new 0 0 81 44;" xml:space="preserve">
<style type="text/css">
	.st0{fill:#FFFFFF;}
	.st1{fill-rule:evenodd;clip-rule:evenodd;fill:#E52232;}
</style>
<path class="st0" d="M32.1,36.1h-2.9v-8.4h-2c-0.1,1.2-0.3,2.5-0.4,3.7c-0.2,1.3-0.4,2.2-0.5,2.6c-0.2,0.5-0.4,0.9-0.6,1.2
	c-0.3,0.3-0.6,0.5-1,0.7c-0.4,0.1-0.8,0.3-1.4,0.3c-0.4,0-0.8-0.1-1.1-0.2v-2.3c0.3,0.1,0.5,0.1,0.7,0.1c0.3,0,0.4-0.1,0.6-0.3
	c0.1-0.2,0.3-0.6,0.4-1.1c0.1-0.5,0.3-1.5,0.4-2.8c0.2-1.4,0.4-2.8,0.6-4.4h7.4L32.1,36.1L32.1,36.1z"/>
<path class="st0" d="M40,36.1h-6.3V25.3H40v2.3h-3.4v1.7h3.2v2.3h-3.2v2.1H40V36.1z"/>
<path class="st0" d="M48.2,25.3v2.4H44v8.5h-2.9V25.3H48.2z"/>
<path class="st0" d="M48.9,25.3h2.5V30c0,0.5-0.1,1.5-0.1,3h0.1l4.3-7.6h3.6v10.8h-2.5v-4.5c0-0.7,0.1-1.7,0.1-3.1h-0.1l-4.3,7.6
	h-3.6V25.3z"/>
<path class="st0" d="M70.7,30.7c0,1.8-0.4,3.2-1.3,4.1c-0.9,1-2.2,1.4-3.9,1.4c-1.7,0-2.9-0.5-3.8-1.4c-0.9-1-1.3-2.3-1.3-4.1
	c0-1.8,0.4-3.2,1.3-4.1c0.9-1,2.2-1.4,3.9-1.4s3,0.5,3.9,1.4C70.3,27.5,70.7,28.9,70.7,30.7z M63.4,30.7c0,2.1,0.7,3.2,2.2,3.2
	c0.7,0,1.3-0.3,1.6-0.8c0.4-0.5,0.5-1.3,0.5-2.4c0-1.1-0.2-1.9-0.5-2.4c-0.4-0.5-0.9-0.8-1.6-0.8C64.2,27.5,63.4,28.6,63.4,30.7z"/>
<path class="st0" d="M81,36.1h-2.9v-4.4h-3.4v4.4h-2.9V25.3h2.9v4h3.4v-4H81V36.1z"/>
<path class="st0" d="M33,23.2h-2.9v-8.4h-2.9v8.4h-2.9V12.4H33V23.2z"/>
<path class="st0" d="M42.3,15.8c0,1.2-0.4,2.1-1.1,2.8c-0.7,0.6-1.7,1-3,1h-0.8v3.6h-2.9V12.4h3.7c1.3,0,2.4,0.3,3,0.9
	C41.9,13.9,42.3,14.7,42.3,15.8z M37.5,17.3H38c0.4,0,0.8-0.1,1-0.4c0.3-0.3,0.4-0.6,0.4-1c0-0.7-0.4-1.1-1.2-1.1h-0.7V17.3z"/>
<path class="st0" d="M53.2,17.8c0,1.8-0.4,3.2-1.3,4.1c-0.9,1-2.2,1.4-3.9,1.4c-1.7,0-2.9-0.5-3.8-1.4c-0.9-1-1.3-2.3-1.3-4.1
	c0-1.8,0.4-3.2,1.3-4.1s2.2-1.4,3.9-1.4c1.7,0,3,0.5,3.9,1.4C52.8,14.6,53.2,16,53.2,17.8z M45.9,17.8c0,2.1,0.7,3.2,2.2,3.2
	c0.7,0,1.3-0.3,1.6-0.8c0.4-0.5,0.5-1.3,0.5-2.4s-0.2-1.9-0.5-2.4c-0.4-0.5-0.9-0.8-1.6-0.8C46.6,14.6,45.9,15.6,45.9,17.8z"/>
<path class="st1" d="M11.1,17.1c-0.1,0-0.1,0-0.2,0c-2,0-3.8,0.3-5.3,0.9h0.1C5.8,18,6,18,6.2,18c1.7-0.1,5.7-0.4,8.6,0.8
	c0,0-1.7-0.1-3.9,0v5.2v10.9v1.4l-2.4-2.3l0.6-2.3l0.1-3.4L1.5,24l2,1.8l0.1,2.1l3.9,2.3L7.2,43.9l-2.9-2.8l-3.6-5.6v-4.8l4.1,1.7
	L0,28.7l0.1-5.1v-0.8v-0.8c0-0.3,0-0.6,0-1l7.2,3.5l-5.7-4c0,0-0.7-4.1,4.3-6.8c0,0-2.4,0.4-4.6,2c1.2-2.3,3.2-3.9,5.9-5.5l1.4,1.5
	L6,3.7l2.5-1.9L11.1,0l2.5,1.9l2.5,1.9l-5.1-1.4C11.1,7.3,11.1,12.2,11.1,17.1z"/>
<path class="st1" d="M19.2,28.8l-2.2,0.8l-2.5,0.9l-0.1,0.1v0.8v6.4V44l1.5-12.1L19.2,28.8z"/>
<path class="st1" d="M19.2,19L17,18.2l-2.6-1v-0.9V9.7V4.8l1.5,11.1L19.2,19z"/>
<path class="st1" d="M16.5,24.5c0,0.5-0.4,0.8-1,1c-0.5,0.2-1-0.5-1-1c0-0.5,0.4-1.1,1-1C16.1,23.6,16.5,24,16.5,24.5z"/>
<path class="st1" d="M56.7,14.4L55.8,12l-1-2.6V9.2h-0.9h-6.6h-6.5l12.6,1.6L56.7,14.4z"/>
</svg>
