<?xml version="1.0" encoding="UTF-8"?> <svg xmlns="http://www.w3.org/2000/svg" width="43" height="50" viewBox="0 0 43 50" fill="none"><path d="M2.23256 22.2093V46.7674H14.5116V30.0233C14.5116 26.3284 17.5144 23.3256 21.2093 23.3256C24.9042 23.3256 27.907 26.3284 27.907 30.0233V46.7674H40.186V22.2093M11.1628 41.186H5.5814M40.186 19.9767H2.23256M0 16.6279H42.4186M40.186 14.3953V11.0465H2.23256V14.3953M36.8372 41.186H31.2558M26.7907 30.0233H42.4186M0 30.0233H15.6279M15.6279 49H1.11628M41.3023 49H26.7907M21.2093 11.0465V1M25.6744 1H21.2093V5.46512H25.6744V1ZM25.6744 3.23256V5.46512H24.5581V7.69767H29.0233V3.23256H25.6744Z" stroke="black" stroke-miterlimit="10"></path></svg> 