<?xml version="1.0" encoding="UTF-8"?> <svg xmlns="http://www.w3.org/2000/svg" width="53" height="50" viewBox="0 0 53 50" fill="none"><path d="M26.7079 49V25.3237M15.88 14.9088L7.76465 18.0344L26.7079 25.3237L45.6512 18.0344L37.5358 14.9088M7.76465 29.8335V41.7107L26.7079 49V25.3237M26.7079 6.64837V8.88093M26.7079 16.7619V21.9749M30.0567 16.7619V18.626M23.3591 16.7619V19.7423M45.6512 18.0344L26.7079 25.3237L33.4726 31.173L52.4158 23.8837L45.6512 18.0344V18.0344ZM1 23.8837L19.9433 31.173L26.7079 25.3237L7.76465 18.0344L1 23.8837ZM39.333 44.1442V36.0288L33.0149 38.4623V46.5777L39.333 44.1442ZM33.4726 31.173L26.7079 25.3237V49L45.6512 41.7107V26.4847L33.4726 31.173V31.173ZM33.4726 13.413V2.11628C33.4726 1.50233 32.9702 1 32.3563 1H21.0595C20.4456 1 19.9433 1.50233 19.9433 2.11628V13.413C19.9433 14.027 20.4456 14.5293 21.0595 14.5293H32.3563C32.9702 14.5293 33.4726 14.027 33.4726 13.413V13.413Z" stroke="#2F3035" stroke-linejoin="round"></path></svg> 