<?xml version="1.0" encoding="UTF-8"?> <svg xmlns="http://www.w3.org/2000/svg" width="31" height="50" viewBox="0 0 31 50" fill="none"><path d="M1 7.01828L3.89102 10.4605M15.4664 1.75369V6.25334M6.99578 1L9.30185 7.33325M23.9257 1L21.6196 7.33325M29.9215 7.01828L27.0305 10.4605M6.03961 33.9149C3.53105 31.4626 1.96742 28.0429 1.96742 24.2519C1.96742 16.7938 8.0082 10.753 15.4664 10.753C22.9245 10.753 28.9653 16.7938 28.9653 24.2519C28.9653 28.5378 26.9742 32.3513 23.8582 34.8261M17.7162 46.7502C17.7162 47.9876 16.7038 49 15.4664 49C14.229 49 13.2165 47.9876 13.2165 46.7502V44.5004H19.966C20.5847 44.5004 21.0909 43.9941 21.0909 43.3754C21.0909 42.7567 20.5847 42.2505 19.966 42.2505H10.9667C10.348 42.2505 9.84181 41.7443 9.84181 41.1256C9.84181 40.5069 10.348 40.0007 10.9667 40.0007H19.966C20.5847 40.0007 21.0909 39.4945 21.0909 38.8758C21.0909 38.2571 20.5847 37.7509 19.966 37.7509H10.9667C10.348 37.7509 9.84181 37.2447 9.84181 36.626C9.84181 36.0073 10.348 35.5011 10.9667 35.5011H17.1537V24.2519V22.5646C17.1537 21.6309 17.9074 20.8772 18.8411 20.8772C19.7748 20.8772 20.5285 21.6309 20.5285 22.5646C20.5285 23.4982 19.7748 24.2519 18.8411 24.2519H12.0916C11.158 24.2519 10.4043 23.4982 10.4043 22.5646C10.4043 21.6309 11.158 20.8772 12.0916 20.8772C13.0253 20.8772 13.779 21.6309 13.779 22.5646V31.0014" stroke="#2F3035" stroke-miterlimit="10"></path></svg> 