<?xml version="1.0" standalone="no"?>
<!DOCTYPE svg PUBLIC "-//W3C//DTD SVG 20010904//EN"
 "http://www.w3.org/TR/2001/REC-SVG-20010904/DTD/svg10.dtd">
<svg version="1.0" xmlns="http://www.w3.org/2000/svg"
 width="960.000000pt" height="960.000000pt" viewBox="0 0 960.000000 960.000000"
 preserveAspectRatio="xMidYMid meet">
<metadata>
Created by potrace 1.14, written by Peter Selinger 2001-2017
</metadata>
<g transform="translate(0.000000,960.000000) scale(0.100000,-0.100000)"
fill="#000000" stroke="none">
<path d="M5050 9545 c-41 -29 -107 -76 -147 -104 -39 -28 -76 -51 -82 -51 -6
0 -11 -4 -11 -8 0 -4 -15 -16 -32 -27 -18 -10 -42 -27 -52 -37 -11 -10 -24
-18 -28 -18 -5 0 -21 -11 -36 -25 -15 -14 -30 -25 -35 -25 -7 0 -131 -92 -257
-190 -43 -34 -227 -174 -255 -194 -14 -11 -36 -28 -48 -39 -12 -10 -28 -22
-35 -26 -11 -6 -10 -19 6 -67 25 -74 85 -260 202 -624 50 -157 100 -309 111
-338 10 -28 18 -55 18 -57 -1 -3 4 -18 9 -33 6 -15 43 -128 82 -252 40 -124
83 -258 96 -298 13 -40 24 -75 24 -77 0 -3 -23 21 -52 52 -144 160 -243 263
-253 263 -9 0 -126 -71 -143 -87 -7 -7 -18 -13 -23 -13 -5 0 -38 -20 -73 -45
-36 -25 -69 -45 -75 -45 -5 0 -11 -3 -13 -7 -1 -5 -25 -23 -53 -42 -78 -54
-266 -196 -305 -231 -19 -17 -62 -55 -94 -83 -33 -29 -64 -57 -70 -63 -83 -85
-145 -154 -200 -224 -37 -47 -74 -92 -81 -102 -27 -33 -145 -232 -140 -236 2
-3 35 16 72 40 106 70 121 79 238 139 136 69 280 128 410 168 55 17 114 35
130 41 17 5 41 11 55 14 14 3 36 8 50 12 35 10 28 5 -78 -59 -240 -146 -406
-296 -580 -527 -77 -101 -175 -317 -211 -461 -32 -132 -33 -136 -37 -286 l-4
-142 62 -42 c35 -24 65 -45 68 -48 3 -3 28 -21 55 -40 28 -19 76 -53 108 -75
32 -23 66 -46 75 -51 19 -11 132 -92 174 -125 14 -11 31 -20 37 -20 6 0 11 -4
11 -8 0 -4 15 -16 33 -27 17 -10 37 -23 42 -28 20 -17 228 -162 259 -181 17
-10 33 -21 36 -25 4 -7 135 -98 226 -159 19 -12 34 -25 34 -28 0 -4 -7 -1 -15
6 -8 7 -15 10 -15 6 0 -3 -18 5 -40 19 -22 14 -42 25 -45 25 -6 0 -140 64
-470 225 -502 245 -648 315 -656 315 -5 0 -9 5 -9 12 0 6 -2 9 -5 6 -3 -3 -67
25 -143 62 -75 38 -138 67 -140 66 -1 -2 -4 -219 -5 -482 -2 -264 -7 -485 -11
-492 -4 -7 -3 -12 3 -12 6 0 8 -6 6 -12 -10 -26 -10 -116 -1 -111 5 4 6 1 1
-7 -4 -7 -9 -83 -10 -169 -2 -86 -4 -205 -4 -266 -1 -60 -2 -115 -2 -122 1 -9
69 -66 186 -155 6 -4 24 -18 40 -31 31 -24 308 -238 500 -386 61 -46 112 -88
113 -93 2 -4 8 -8 14 -8 6 0 25 -12 43 -27 52 -45 72 -61 99 -78 35 -23 33
-37 -1 -20 -16 7 -95 41 -178 75 -149 62 -260 108 -513 214 -74 31 -138 56
-143 56 -5 0 -9 -210 -9 -523 l0 -522 45 -67 c25 -37 45 -72 45 -77 0 -5 4
-11 8 -13 7 -2 169 -250 207 -315 6 -10 41 -64 78 -121 37 -57 67 -107 67
-112 0 -4 3 -10 8 -12 8 -3 82 -114 82 -123 0 -3 5 -11 11 -18 6 -7 59 -87
117 -179 59 -91 119 -179 133 -195 22 -24 214 -211 530 -514 44 -42 81 -74 83
-70 2 3 4 26 4 51 0 25 3 173 6 329 4 156 9 381 11 500 3 119 8 347 11 506 4
160 7 370 8 467 0 98 3 178 6 178 3 0 6 84 6 188 1 103 4 315 8 472 l6 286
-33 18 c-49 29 -414 242 -437 256 -78 47 -154 90 -161 90 -5 0 -9 5 -9 10 0 6
-6 10 -14 10 -7 0 -19 7 -26 15 -7 8 -16 13 -20 10 -5 -3 -11 -1 -14 4 -4 5
-35 26 -71 46 -36 20 -65 41 -66 48 -1 21 -8 168 -14 310 l-6 139 -56 51 c-90
83 -97 89 -169 152 -37 33 -83 74 -101 91 -18 17 -46 43 -63 58 -38 31 -28 34
20 4 41 -25 52 -31 228 -127 72 -40 135 -77 138 -82 3 -5 9 -7 14 -4 4 3 13
-2 20 -10 7 -8 16 -15 21 -15 4 0 30 -13 57 -29 46 -27 99 -57 212 -119 25
-14 79 -44 120 -67 41 -23 95 -53 120 -67 25 -14 63 -35 85 -48 22 -12 65 -36
95 -53 30 -16 105 -57 165 -92 61 -34 137 -77 170 -95 33 -18 80 -44 105 -58
25 -13 48 -29 53 -36 6 -10 5 -112 -7 -607 -2 -83 -10 -157 -19 -190 -9 -30
-36 -134 -62 -232 -25 -98 -48 -184 -52 -193 -5 -15 37 -58 297 -304 73 -69
149 -142 170 -162 20 -21 41 -38 46 -38 5 0 9 772 9 1902 l0 1902 40 4 c39 3
689 5 750 1 50 -2 52 1 10 17 -80 30 -261 85 -295 90 -14 2 -90 17 -150 29
-14 3 -41 8 -60 10 -19 3 -49 8 -67 10 -17 3 -55 8 -85 11 -29 3 -73 7 -98 9
-138 14 -230 17 -470 16 -146 0 -299 -2 -340 -5 -217 -14 -374 -16 -357 -5 30
18 189 69 198 63 5 -3 9 0 9 5 0 6 3 10 8 10 4 -1 9 0 12 1 3 1 13 3 22 5 9 2
58 12 110 24 51 11 107 23 123 26 17 3 41 7 55 10 14 3 50 7 80 10 30 3 66 8
80 10 60 11 218 19 448 24 l24 1 -3 1305 c-2 718 -7 1305 -11 1305 -4 0 -4 10
1 22 4 12 5 39 1 60 -4 22 -3 38 2 38 5 0 6 5 3 10 -5 9 -16 460 -11 460 3 -1
192 -51 291 -78 61 -17 160 -44 220 -60 144 -39 197 -54 334 -92 62 -17 120
-33 130 -35 67 -17 90 -23 100 -29 6 -4 11 -3 11 2 0 5 -64 58 -142 117 -79
60 -147 113 -153 118 -5 4 -55 42 -110 83 -55 42 -109 83 -120 92 -11 10 -36
28 -55 42 -19 13 -37 27 -40 30 -3 3 -21 17 -40 30 -19 13 -37 27 -40 30 -3 4
-32 26 -65 50 -33 24 -62 46 -65 50 -3 3 -21 17 -40 30 -19 13 -37 27 -40 30
-3 3 -21 17 -40 30 -19 14 -44 33 -55 43 -53 49 -64 48 -145 -8z"/>
<path d="M5851 7162 l0 -1308 27 -11 c30 -13 294 -117 302 -119 3 0 18 -6 33
-12 16 -7 31 -12 34 -12 3 0 19 -6 36 -14 18 -8 95 -38 172 -66 77 -28 158
-58 180 -67 22 -8 90 -33 150 -54 l110 -40 -65 62 c-56 53 -152 143 -350 329
-26 25 -97 92 -157 149 -60 57 -117 107 -125 112 -10 5 -19 30 -23 61 -4 29
-8 65 -11 79 -2 15 -6 47 -9 70 -3 24 -10 71 -15 104 -5 33 -12 83 -15 110 -3
28 -8 66 -11 85 -3 19 -7 51 -10 70 -2 19 -6 46 -9 60 -2 14 -7 54 -10 89 -3
35 -7 67 -9 70 -2 3 -7 33 -10 66 -7 58 -9 72 -22 160 -3 22 -7 54 -9 70 -8
71 -15 122 -20 145 -3 14 -7 47 -10 74 -2 26 -7 56 -9 65 -3 9 -7 41 -11 71
-3 30 -7 64 -9 76 -2 11 -7 45 -10 75 -3 30 -8 65 -11 79 -2 14 -6 45 -9 70
-6 48 -12 91 -21 155 -4 22 -8 51 -10 65 -1 14 -5 43 -9 65 -3 22 -8 63 -12
90 -7 61 -11 90 -19 135 -3 19 -6 50 -6 68 -1 17 -5 32 -9 32 -5 0 -9 -589 -9
-1308z"/>
<path d="M5989 4457 c-28 -14 -52 -37 -73 -70 -30 -49 -32 -55 -42 -113 -11
-65 44 -180 104 -220 29 -20 106 -27 131 -13 9 4 36 17 61 28 117 53 169 161
126 262 -47 111 -205 176 -307 126z"/>
<path d="M6795 3278 c-106 -40 -238 -89 -250 -92 -5 -2 -21 -8 -35 -13 -14 -6
-54 -20 -90 -32 -36 -12 -74 -26 -85 -31 -18 -7 -51 -20 -65 -25 -3 -1 -12 -4
-20 -8 -8 -3 -44 -15 -80 -27 -36 -12 -74 -26 -85 -32 -12 -5 -27 -10 -35 -12
-8 -2 -26 -8 -40 -13 -14 -6 -53 -21 -87 -33 -35 -12 -64 -25 -64 -29 -6 -29
-2 -2841 4 -2841 4 0 7 10 8 23 1 12 3 33 5 47 6 44 13 104 18 155 3 28 8 66
11 85 3 19 8 51 10 70 2 19 7 55 10 80 3 25 8 65 10 90 5 47 11 92 20 150 3
19 7 60 10 90 3 30 7 66 10 80 7 42 20 148 30 233 11 104 16 143 21 171 2 15
7 51 10 80 6 58 8 78 19 156 4 30 9 66 10 80 1 14 6 50 10 80 5 30 9 66 11 80
3 43 14 134 19 160 2 14 7 56 10 95 4 38 8 72 10 75 1 3 6 32 9 65 9 79 16
134 21 165 4 22 13 108 20 180 5 51 18 69 137 181 67 63 140 132 164 154 23
22 106 101 184 175 79 74 163 154 188 178 24 23 41 42 36 41 -5 0 -45 -14 -89
-31z"/>
<path d="M5855 69 c-4 -6 -5 -12 -2 -15 2 -3 7 2 10 11 7 17 1 20 -8 4z"/>
</g>
</svg>
